REM DIRINDEX 1\2\4\8,1\2\4\9,1\2\4\10,1\2\5\11,1\2\5\12,1\2\5\13,1\2\5\14,1\2\5\15,1\3\6\16,1\3\6\17,1\3\6\18,1\3\7\19,1\3\7\20,1\3\7\21,1\3\7\22,1\3\7\23
REM DIRNAME "folder01","folder02","folder03","folder04","folder05","folder06","folder07","folder08","folder09","folder10","folder11","folder12","folder13","folder14","folder15","folder16","folder17","folder18","folder19","folder20","folder21","folder22","folder23"
TITLE ""
FILE "LR_black_phrase_C10.mp3" MP3
  TRACK 01 AUDIO
    TITLE "0:"
    INDEX 01 00:00:00
  TRACK 02 AUDIO
    TITLE "19:cjc171_14901"
    INDEX 01 00:00:14
  TRACK 03 AUDIO
    TITLE "0:"
    INDEX 01 00:01:41
  TRACK 04 AUDIO
    TITLE "20:cjc171_14902"
    INDEX 01 00:02:05
  TRACK 05 AUDIO
    TITLE "0:"
    INDEX 01 00:03:36
  TRACK 06 AUDIO
    TITLE "21:cjc171_14903"
    INDEX 01 00:04:34
  TRACK 07 AUDIO
    TITLE "0:"
    INDEX 01 00:06:34
  TRACK 08 AUDIO
    TITLE "22:cjc171_14904"
    INDEX 01 00:07:01
  TRACK 09 AUDIO
    TITLE "0:"
    INDEX 01 00:08:73
  TRACK 10 AUDIO
    TITLE "23:cjc171_14905"
    INDEX 01 00:09:27
  TRACK 11 AUDIO
    TITLE "0:"
    INDEX 01 00:11:26
  TRACK 12 AUDIO
    TITLE "19:cjc171_14906"
    INDEX 01 00:12:29
  TRACK 13 AUDIO
    TITLE "0:"
    INDEX 01 00:13:42
  TRACK 14 AUDIO
    TITLE "20:cjc171_14907"
    INDEX 01 00:14:07
  TRACK 15 AUDIO
    TITLE "0:"
    INDEX 01 00:16:54
  TRACK 16 AUDIO
    TITLE "21:cjc171_14908"
    INDEX 01 00:17:54
  TRACK 17 AUDIO
    TITLE "0:"
    INDEX 01 00:19:47
  TRACK 18 AUDIO
    TITLE "22:cjc171_14909"
    INDEX 01 00:20:11
  TRACK 19 AUDIO
    TITLE "0:"
    INDEX 01 00:22:02
  TRACK 20 AUDIO
    TITLE "23:cjc171_14910"
    INDEX 01 00:22:31
  TRACK 21 AUDIO
    TITLE "0:"
    INDEX 01 00:24:23
  TRACK 22 AUDIO
    TITLE "19:cjc171_14911"
    INDEX 01 00:25:28
  TRACK 23 AUDIO
    TITLE "0:"
    INDEX 01 00:26:53
  TRACK 24 AUDIO
    TITLE "20:cjc171_14912"
    INDEX 01 00:27:13
  TRACK 25 AUDIO
    TITLE "0:"
    INDEX 01 00:28:71
  TRACK 26 AUDIO
    TITLE "21:cjc171_14913"
    INDEX 01 00:29:73
  TRACK 27 AUDIO
    TITLE "0:"
    INDEX 01 00:31:64
  TRACK 28 AUDIO
    TITLE "22:cjc171_14914"
    INDEX 01 00:32:22
  TRACK 29 AUDIO
    TITLE "0:"
    INDEX 01 00:34:43
  TRACK 30 AUDIO
    TITLE "23:cjc171_14915"
    INDEX 01 00:34:62
  TRACK 31 AUDIO
    TITLE "0:"
    INDEX 01 00:37:08
  TRACK 32 AUDIO
    TITLE "19:cjc171_14916"
    INDEX 01 00:38:03
  TRACK 33 AUDIO
    TITLE "0:"
    INDEX 01 00:39:22
  TRACK 34 AUDIO
    TITLE "20:cjc171_14917"
    INDEX 01 00:39:59
  TRACK 35 AUDIO
    TITLE "0:"
    INDEX 01 00:42:44
  TRACK 36 AUDIO
    TITLE "21:cjc171_14918"
    INDEX 01 00:43:53
  TRACK 37 AUDIO
    TITLE "0:"
    INDEX 01 00:45:50
  TRACK 38 AUDIO
    TITLE "22:cjc171_14919"
    INDEX 01 00:46:10
  TRACK 39 AUDIO
    TITLE "0:"
    INDEX 01 00:48:21
  TRACK 40 AUDIO
    TITLE "23:cjc171_14920"
    INDEX 01 00:48:47
  TRACK 41 AUDIO
    TITLE "0:"
    INDEX 01 00:50:59
  TRACK 42 AUDIO
    TITLE "19:cjc171_14921"
    INDEX 01 00:51:64
  TRACK 43 AUDIO
    TITLE "0:"
    INDEX 01 00:53:12
  TRACK 44 AUDIO
    TITLE "20:cjc171_14922"
    INDEX 01 00:53:52
  TRACK 45 AUDIO
    TITLE "0:"
    INDEX 01 00:55:41
  TRACK 46 AUDIO
    TITLE "21:cjc171_14923"
    INDEX 01 00:56:40
  TRACK 47 AUDIO
    TITLE "0:"
    INDEX 01 00:58:72
  TRACK 48 AUDIO
    TITLE "22:cjc171_14924"
    INDEX 01 00:59:37
  TRACK 49 AUDIO
    TITLE "0:"
    INDEX 01 01:01:45
  TRACK 50 AUDIO
    TITLE "23:cjc171_14925"
    INDEX 01 01:02:02
  TRACK 51 AUDIO
    TITLE "0:"
    INDEX 01 01:04:10
  TRACK 52 AUDIO
    TITLE "19:cjc171_14926"
    INDEX 01 01:05:14
  TRACK 53 AUDIO
    TITLE "0:"
    INDEX 01 01:06:19
  TRACK 54 AUDIO
    TITLE "20:cjc171_14927"
    INDEX 01 01:06:58
  TRACK 55 AUDIO
    TITLE "0:"
    INDEX 01 01:09:21
  TRACK 56 AUDIO
    TITLE "21:cjc171_14928"
    INDEX 01 01:10:19
  TRACK 57 AUDIO
    TITLE "0:"
    INDEX 01 01:12:35
  TRACK 58 AUDIO
    TITLE "22:cjc171_14929"
    INDEX 01 01:12:74
  TRACK 59 AUDIO
    TITLE "0:"
    INDEX 01 01:14:67
  TRACK 60 AUDIO
    TITLE "23:cjc171_14930"
    INDEX 01 01:15:22
  TRACK 61 AUDIO
    TITLE "0:"
    INDEX 01 01:17:15
  TRACK 62 AUDIO
    TITLE "19:cjc171_14931"
    INDEX 01 01:18:16
  TRACK 63 AUDIO
    TITLE "0:"
    INDEX 01 01:19:31
  TRACK 64 AUDIO
    TITLE "20:cjc171_14932"
    INDEX 01 01:19:75
  TRACK 65 AUDIO
    TITLE "0:"
    INDEX 01 01:22:18
  TRACK 66 AUDIO
    TITLE "21:cjc171_14933"
    INDEX 01 01:23:17
  TRACK 67 AUDIO
    TITLE "0:"
    INDEX 01 01:25:40
  TRACK 68 AUDIO
    TITLE "22:cjc171_14934"
    INDEX 01 01:25:73
  TRACK 69 AUDIO
    TITLE "0:"
    INDEX 01 01:28:19
  TRACK 70 AUDIO
    TITLE "23:cjc171_14935"
    INDEX 01 01:28:38
  TRACK 71 AUDIO
    TITLE "0:"
    INDEX 01 01:30:59
  TRACK 72 AUDIO
    TITLE "19:cjc171_14936"
    INDEX 01 01:31:52
  TRACK 73 AUDIO
    TITLE "0:"
    INDEX 01 01:32:58
  TRACK 74 AUDIO
    TITLE "20:cjc171_14937"
    INDEX 01 01:33:18
  TRACK 75 AUDIO
    TITLE "0:"
    INDEX 01 01:36:01
  TRACK 76 AUDIO
    TITLE "21:cjc171_14938"
    INDEX 01 01:36:71
  TRACK 77 AUDIO
    TITLE "0:"
    INDEX 01 01:38:72
  TRACK 78 AUDIO
    TITLE "22:cjc171_14939"
    INDEX 01 01:39:32
  TRACK 79 AUDIO
    TITLE "0:"
    INDEX 01 01:41:21
  TRACK 80 AUDIO
    TITLE "23:cjc171_14940"
    INDEX 01 01:41:45
  TRACK 81 AUDIO
    TITLE "0:"
    INDEX 01 01:43:32
  TRACK 82 AUDIO
    TITLE "19:cjc171_14941"
    INDEX 01 01:44:37
  TRACK 83 AUDIO
    TITLE "0:"
    INDEX 01 01:45:39
  TRACK 84 AUDIO
    TITLE "20:cjc171_14942"
    INDEX 01 01:46:03
  TRACK 85 AUDIO
    TITLE "0:"
    INDEX 01 01:48:37
  TRACK 86 AUDIO
    TITLE "21:cjc171_14943"
    INDEX 01 01:49:36
  TRACK 87 AUDIO
    TITLE "0:"
    INDEX 01 01:51:04
  TRACK 88 AUDIO
    TITLE "22:cjc171_14944"
    INDEX 01 01:51:47
  TRACK 89 AUDIO
    TITLE "0:"
    INDEX 01 01:53:11
  TRACK 90 AUDIO
    TITLE "23:cjc171_14945"
    INDEX 01 01:53:42
  TRACK 91 AUDIO
    TITLE "0:"
    INDEX 01 01:55:06
  TRACK 92 AUDIO
    TITLE "19:cjc171_14946"
    INDEX 01 01:56:09
  TRACK 93 AUDIO
    TITLE "0:"
    INDEX 01 01:57:28
  TRACK 94 AUDIO
    TITLE "20:cjc171_14947"
    INDEX 01 01:57:67
  TRACK 95 AUDIO
    TITLE "0:"
    INDEX 01 02:00:30
  TRACK 96 AUDIO
    TITLE "21:cjc171_14948"
    INDEX 01 02:01:30
  TRACK 97 AUDIO
    TITLE "0:"
    INDEX 01 02:03:48
  TRACK 98 AUDIO
    TITLE "22:cjc171_14949"
    INDEX 01 02:04:12
  TRACK 99 AUDIO
    TITLE "0:"
    INDEX 01 02:06:49
  TRACK 100 AUDIO
    TITLE "23:cjc171_14950"
    INDEX 01 02:07:03
  TRACK 101 AUDIO
    TITLE "0:"
    INDEX 01 02:09:39
  TRACK 102 AUDIO
    TITLE "19:cjc171_14951"
    INDEX 01 02:10:39
  TRACK 103 AUDIO
    TITLE "0:"
    INDEX 01 02:11:52
  TRACK 104 AUDIO
    TITLE "20:cjc171_14952"
    INDEX 01 02:12:12
  TRACK 105 AUDIO
    TITLE "0:"
    INDEX 01 02:14:60
  TRACK 106 AUDIO
    TITLE "21:cjc171_14953"
    INDEX 01 02:15:59
  TRACK 107 AUDIO
    TITLE "0:"
    INDEX 01 02:18:01
  TRACK 108 AUDIO
    TITLE "22:cjc171_14954"
    INDEX 01 02:18:36
  TRACK 109 AUDIO
    TITLE "0:"
    INDEX 01 02:21:13
  TRACK 110 AUDIO
    TITLE "23:cjc171_14955"
    INDEX 01 02:21:46
  TRACK 111 AUDIO
    TITLE "0:"
    INDEX 01 02:24:31
  TRACK 112 AUDIO
    TITLE "19:cjc171_14956"
    INDEX 01 02:25:26
  TRACK 113 AUDIO
    TITLE "0:"
    INDEX 01 02:26:40
  TRACK 114 AUDIO
    TITLE "20:cjc171_14957"
    INDEX 01 02:26:75
  TRACK 115 AUDIO
    TITLE "0:"
    INDEX 01 02:28:17
  TRACK 116 AUDIO
    TITLE "21:cjc171_14958"
    INDEX 01 02:29:16
  TRACK 117 AUDIO
    TITLE "0:"
    INDEX 01 02:31:49
  TRACK 118 AUDIO
    TITLE "22:cjc171_14959"
    INDEX 01 02:32:07
  TRACK 119 AUDIO
    TITLE "0:"
    INDEX 01 02:34:35
  TRACK 120 AUDIO
    TITLE "23:cjc171_14960"
    INDEX 01 02:34:61
  TRACK 121 AUDIO
    TITLE "0:"
    INDEX 01 02:37:06
  TRACK 122 AUDIO
    TITLE "19:cjc171_14961"
    INDEX 01 02:38:17
  TRACK 123 AUDIO
    TITLE "0:"
    INDEX 01 02:39:44
  TRACK 124 AUDIO
    TITLE "20:cjc171_14962"
    INDEX 01 02:40:06
  TRACK 125 AUDIO
    TITLE "0:"
    INDEX 01 02:42:48
  TRACK 126 AUDIO
    TITLE "21:cjc171_14963"
    INDEX 01 02:43:52
  TRACK 127 AUDIO
    TITLE "0:"
    INDEX 01 02:45:57
  TRACK 128 AUDIO
    TITLE "22:cjc171_14964"
    INDEX 01 02:46:19
  TRACK 129 AUDIO
    TITLE "0:"
    INDEX 01 02:48:12
  TRACK 130 AUDIO
    TITLE "23:cjc171_14965"
    INDEX 01 02:48:39
  TRACK 131 AUDIO
    TITLE "0:"
    INDEX 01 02:50:32
  TRACK 132 AUDIO
    TITLE "19:cjc171_14966"
    INDEX 01 02:51:34
  TRACK 133 AUDIO
    TITLE "0:"
    INDEX 01 02:52:41
  TRACK 134 AUDIO
    TITLE "20:cjc171_14967"
    INDEX 01 02:53:07
  TRACK 135 AUDIO
    TITLE "0:"
    INDEX 01 02:54:22
  TRACK 136 AUDIO
    TITLE "21:cjc171_14968"
    INDEX 01 02:55:20
  TRACK 137 AUDIO
    TITLE "0:"
    INDEX 01 02:57:21
  TRACK 138 AUDIO
    TITLE "22:cjc171_14969"
    INDEX 01 02:57:58
  TRACK 139 AUDIO
    TITLE "0:"
    INDEX 01 03:00:56
  TRACK 140 AUDIO
    TITLE "23:cjc171_14970"
    INDEX 01 03:01:09
  TRACK 141 AUDIO
    TITLE "0:"
    INDEX 01 03:04:09
  TRACK 142 AUDIO
    TITLE "19:cjc171_14971"
    INDEX 01 03:05:06
  TRACK 143 AUDIO
    TITLE "0:"
    INDEX 01 03:06:29
  TRACK 144 AUDIO
    TITLE "20:cjc171_14972"
    INDEX 01 03:06:66
  TRACK 145 AUDIO
    TITLE "0:"
    INDEX 01 03:10:09
  TRACK 146 AUDIO
    TITLE "21:cjc171_14973"
    INDEX 01 03:11:11
  TRACK 147 AUDIO
    TITLE "0:"
    INDEX 01 03:12:69
  TRACK 148 AUDIO
    TITLE "22:cjc171_14974"
    INDEX 01 03:13:29
  TRACK 149 AUDIO
    TITLE "0:"
    INDEX 01 03:15:48
  TRACK 150 AUDIO
    TITLE "23:cjc171_14975"
    INDEX 01 03:15:71
  TRACK 151 AUDIO
    TITLE "0:"
    INDEX 01 03:18:13
  TRACK 152 AUDIO
    TITLE "19:cjc171_14976"
    INDEX 01 03:19:10
  TRACK 153 AUDIO
    TITLE "0:"
    INDEX 01 03:20:16
  TRACK 154 AUDIO
    TITLE "20:cjc171_14977"
    INDEX 01 03:20:49
  TRACK 155 AUDIO
    TITLE "0:"
    INDEX 01 03:24:15
  TRACK 156 AUDIO
    TITLE "21:cjc171_14978"
    INDEX 01 03:25:15
  TRACK 157 AUDIO
    TITLE "0:"
    INDEX 01 03:27:12
  TRACK 158 AUDIO
    TITLE "22:cjc171_14979"
    INDEX 01 03:27:45
  TRACK 159 AUDIO
    TITLE "0:"
    INDEX 01 03:29:54
  TRACK 160 AUDIO
    TITLE "23:cjc171_14980"
    INDEX 01 03:30:02
  TRACK 161 AUDIO
    TITLE "0:"
    INDEX 01 03:32:11
  TRACK 162 AUDIO
    TITLE "19:cjc171_14981"
    INDEX 01 03:33:14
  TRACK 163 AUDIO
    TITLE "0:"
    INDEX 01 03:34:33
  TRACK 164 AUDIO
    TITLE "20:cjc171_14982"
    INDEX 01 03:34:73
  TRACK 165 AUDIO
    TITLE "0:"
    INDEX 01 03:36:09
  TRACK 166 AUDIO
    TITLE "21:cjc171_14983"
    INDEX 01 03:37:06
  TRACK 167 AUDIO
    TITLE "0:"
    INDEX 01 03:38:70
  TRACK 168 AUDIO
    TITLE "22:cjc171_14984"
    INDEX 01 03:39:37
  TRACK 169 AUDIO
    TITLE "0:"
    INDEX 01 03:41:33
  TRACK 170 AUDIO
    TITLE "23:cjc171_14985"
    INDEX 01 03:41:59
  TRACK 171 AUDIO
    TITLE "0:"
    INDEX 01 03:43:54
  TRACK 172 AUDIO
    TITLE "19:cjc171_14986"
    INDEX 01 03:44:57
  TRACK 173 AUDIO
    TITLE "0:"
    INDEX 01 03:45:59
  TRACK 174 AUDIO
    TITLE "20:cjc171_14987"
    INDEX 01 03:46:25
  TRACK 175 AUDIO
    TITLE "0:"
    INDEX 01 03:48:43
  TRACK 176 AUDIO
    TITLE "21:cjc171_14988"
    INDEX 01 03:49:45
  TRACK 177 AUDIO
    TITLE "0:"
    INDEX 01 03:52:18
  TRACK 178 AUDIO
    TITLE "22:cjc171_14989"
    INDEX 01 03:52:57
  TRACK 179 AUDIO
    TITLE "0:"
    INDEX 01 03:55:26
  TRACK 180 AUDIO
    TITLE "23:cjc171_14990"
    INDEX 01 03:55:55
  TRACK 181 AUDIO
    TITLE "0:"
    INDEX 01 03:58:24
  TRACK 182 AUDIO
    TITLE "19:cjc171_14991"
    INDEX 01 03:59:22
  TRACK 183 AUDIO
    TITLE "0:"
    INDEX 01 04:00:41
  TRACK 184 AUDIO
    TITLE "20:cjc171_14992"
    INDEX 01 04:01:05
  TRACK 185 AUDIO
    TITLE "0:"
    INDEX 01 04:03:51
  TRACK 186 AUDIO
    TITLE "21:cjc171_14993"
    INDEX 01 04:04:52
  TRACK 187 AUDIO
    TITLE "0:"
    INDEX 01 04:06:35
  TRACK 188 AUDIO
    TITLE "22:cjc171_14994"
    INDEX 01 04:06:69
  TRACK 189 AUDIO
    TITLE "0:"
    INDEX 01 04:08:68
  TRACK 190 AUDIO
    TITLE "23:cjc171_14995"
    INDEX 01 04:09:16
  TRACK 191 AUDIO
    TITLE "0:"
    INDEX 01 04:11:13
  TRACK 192 AUDIO
    TITLE "19:cjc171_14996"
    INDEX 01 04:12:12
  TRACK 193 AUDIO
    TITLE "0:"
    INDEX 01 04:13:35
  TRACK 194 AUDIO
    TITLE "20:cjc171_14997"
    INDEX 01 04:13:71
  TRACK 195 AUDIO
    TITLE "0:"
    INDEX 01 04:16:01
  TRACK 196 AUDIO
    TITLE "21:cjc171_14998"
    INDEX 01 04:16:75
  TRACK 197 AUDIO
    TITLE "0:"
    INDEX 01 04:19:11
  TRACK 198 AUDIO
    TITLE "22:cjc171_14999"
    INDEX 01 04:19:46
  TRACK 199 AUDIO
    TITLE "0:"
    INDEX 01 04:22:01
  TRACK 200 AUDIO
    TITLE "23:cjc171_15000"
    INDEX 01 04:22:29
  TRACK 201 AUDIO
    TITLE "0:"
    INDEX 01 04:24:59
